<svg xmlns="http://www.w3.org/2000/svg" xmlns:xlink="http://www.w3.org/1999/xlink" viewBox="0,0,256,256" width="512px" height="512px" fill-rule="nonzero"><g fill="#8843e4" fill-rule="nonzero" stroke="none" stroke-width="1" stroke-linecap="butt" stroke-linejoin="miter" stroke-miterlimit="10" stroke-dasharray="" stroke-dashoffset="0" font-family="none" font-weight="none" font-size="none" text-anchor="none" style="mix-blend-mode: normal"><g transform="scale(5.33333,5.33333)"><path d="M41,26.5c0,9.1 -7.4,16.5 -16.5,16.5c-2.4,0 -4.6,-0.5 -6.6,-1.4l1.3,-2.7c1.6,0.7 3.5,1.1 5.4,1.1c7.3,0 13.4,-6.1 13.4,-13.5c0,-4.2 -2,-8 -5,-10.5v11.1l-5,-5v-7.1l-5.6,12h5.6v-2l5,5l-5,4v-2h-7.9l-5.1,11h-6l15,-30c-7.2,0.3 -13,6.2 -13,13.5c0,2 0.4,3.9 1.2,5.6l-1.6,3.3c-1.6,-2.6 -2.6,-5.6 -2.6,-8.9c0,-9.1 7.4,-16.5 16.5,-16.5c0.3,0 0.7,0 1,0l2.5,-5h5v7.4c4.8,2.9 8,8.1 8,14.1zM28.7,36h4.3v-3.4z"></path></g></g></svg>